<svg xmlns="http://www.w3.org/2000/svg" viewBox="0 0 100 100" width="100" height="100">
  <defs>
    <radialGradient id="orbGlow" cx="50%" cy="50%" r="50%">
      <stop offset="0%" stop-color="#818cf8" stop-opacity="0.25"/>
      <stop offset="100%" stop-color="#818cf8" stop-opacity="0"/>
    </radialGradient>
    <radialGradient id="orbCore" cx="35%" cy="35%" r="65%">
      <stop offset="0%" stop-color="#e0e7ff"/>
      <stop offset="40%" stop-color="#818cf8"/>
      <stop offset="100%" stop-color="#4338ca"/>
    </radialGradient>
    <linearGradient id="s1" x1="0%" y1="0%" x2="100%" y2="0%">
      <stop offset="0%" stop-color="#818cf8" stop-opacity="0"/>
      <stop offset="50%" stop-color="#818cf8" stop-opacity="0.7"/>
      <stop offset="100%" stop-color="#818cf8" stop-opacity="0"/>
    </linearGradient>
    <linearGradient id="s2" x1="0%" y1="0%" x2="100%" y2="100%">
      <stop offset="0%" stop-color="#a5b4fc" stop-opacity="0"/>
      <stop offset="50%" stop-color="#a5b4fc" stop-opacity="0.6"/>
      <stop offset="100%" stop-color="#a5b4fc" stop-opacity="0"/>
    </linearGradient>
    <linearGradient id="s3" x1="100%" y1="0%" x2="0%" y2="100%">
      <stop offset="0%" stop-color="#6366f1" stop-opacity="0"/>
      <stop offset="50%" stop-color="#6366f1" stop-opacity="0.6"/>
      <stop offset="100%" stop-color="#6366f1" stop-opacity="0"/>
    </linearGradient>
  </defs>
  <circle cx="50" cy="50" r="45" fill="url(#orbGlow)"/>
  <line x1="5"  y1="50" x2="95" y2="50" stroke="url(#s1)" stroke-width="1.5"/>
  <line x1="50" y1="5"  x2="50" y2="95" stroke="url(#s1)" stroke-width="1.5"/>
  <line x1="10" y1="15" x2="90" y2="85" stroke="url(#s2)" stroke-width="1.2"/>
  <line x1="90" y1="15" x2="10" y2="85" stroke="url(#s3)" stroke-width="1.2"/>
  <circle cx="50" cy="50" r="32" fill="none" stroke="#818cf8" stroke-width="0.6" stroke-opacity="0.4"/>
  <circle cx="50" cy="18" r="2.8" fill="#a5b4fc"/>
  <circle cx="82" cy="50" r="2.8" fill="#a5b4fc"/>
  <circle cx="50" cy="82" r="2.8" fill="#a5b4fc"/>
  <circle cx="18" cy="50" r="2.8" fill="#a5b4fc"/>
  <circle cx="73" cy="27" r="2" fill="#c7d2fe" opacity="0.8"/>
  <circle cx="27" cy="73" r="2" fill="#c7d2fe" opacity="0.8"/>
  <circle cx="73" cy="73" r="2" fill="#c7d2fe" opacity="0.8"/>
  <circle cx="27" cy="27" r="2" fill="#c7d2fe" opacity="0.8"/>
  <circle cx="50" cy="50" r="16" fill="url(#orbCore)"/>
  <circle cx="44" cy="44" r="5" fill="#e0e7ff" opacity="0.35"/>
  <circle cx="50" cy="50" r="3" fill="#fff" opacity="0.95"/>
</svg>
